<svg width="783" height="231" viewBox="0 0 783 231" fill="none" xmlns="http://www.w3.org/2000/svg">
<g filter="url(#filter0_d_30_93)">
<path d="M71.2044 94.9442C83.5143 83.0643 103.519 83.0644 115.829 94.9442L134.06 112.538L124.7 121.57L106.304 103.816C99.2294 96.989 87.8053 96.9889 80.7308 103.816C73.5913 110.706 73.5915 121.927 80.7308 128.817L101.385 148.75L115.425 162.3L115.426 162.302C115.427 162.303 115.431 162.306 115.434 162.308L115.571 162.44C115.667 162.533 115.808 162.67 115.992 162.847C116.358 163.201 116.892 163.716 117.558 164.358C118.89 165.643 120.751 167.44 122.869 169.484L136.484 182.623L137.632 183.731L137.654 183.753C137.657 183.756 137.661 183.759 137.664 183.763L138.91 184.965C138.915 184.969 138.925 184.979 138.945 184.998C138.951 185.004 138.958 185.011 138.964 185.017L139.003 185.055C139.01 185.061 139.016 185.068 139.023 185.074C139.118 185.166 139.085 185.134 139.13 185.178L139.3 185.341C139.346 185.385 139.284 185.326 139.335 185.375C139.403 185.44 139.423 185.46 139.491 185.525C139.75 185.775 139.542 185.575 139.8 185.824L139.839 185.861C139.847 185.869 139.87 185.891 139.877 185.898C139.884 185.904 139.89 185.911 139.897 185.917C139.903 185.923 139.909 185.929 139.915 185.935L139.954 185.972C140.105 186.118 139.963 185.981 140.089 186.103L141.104 187.082C141.105 187.083 141.106 187.084 141.107 187.085C141.112 187.09 141.119 187.096 141.124 187.101C141.13 187.107 141.136 187.113 141.142 187.119C141.157 187.134 141.17 187.145 141.179 187.154L143.908 189.789C146.966 192.739 150.833 194.407 154.785 194.811C159.996 195.344 165.441 193.688 169.482 189.789C173.098 186.299 174.892 181.68 174.833 177.067L186.034 166.256C190.433 177.087 188.106 189.88 179.007 198.661C168.507 208.794 152.38 210.299 140.213 203.102C138.139 201.875 136.18 200.395 134.383 198.661L124.164 188.8L108.692 173.867L92.9134 158.639L71.2044 137.689C58.9596 125.872 58.9597 106.762 71.2044 94.9442ZM103.194 177.594C103.396 181.857 105.184 186.053 108.528 189.279C111.891 192.525 116.229 194.216 120.591 194.385L129.869 203.338C130.567 204.011 131.286 204.653 132.023 205.264C120.866 209.134 107.908 206.747 99.0013 198.151C90.1088 189.569 87.6845 177.155 91.6849 166.486L103.194 177.594ZM228.166 30.7528C240.476 18.8731 260.48 18.8731 272.79 30.7528C285.035 42.5702 285.035 61.6805 272.79 73.4979L184.722 158.491L169.246 173.426L154.026 188.114C151.961 187.652 150.014 186.648 148.422 185.111L148.409 185.098C148.405 185.094 148.382 185.073 148.37 185.061C148.349 185.04 148.334 185.027 148.325 185.017L148.099 184.8C147.977 184.682 147.806 184.517 147.67 184.386C147.573 184.292 147.501 184.222 147.44 184.163L146.347 183.108C146.344 183.106 146.342 183.103 146.339 183.1L146.274 183.037C146.258 183.021 146.224 182.989 146.207 182.973C146.1 182.869 146.248 183.014 146.14 182.909C146.134 182.903 146.127 182.896 146.119 182.889L146.016 182.789C146.014 182.787 146.01 182.783 146.005 182.778C145.987 182.761 145.989 182.763 145.971 182.745L145.936 182.712C145.904 182.681 145.934 182.71 145.902 182.679C145.87 182.648 145.898 182.676 145.867 182.645L145.832 182.611L145.797 182.578C145.537 182.327 145.776 182.557 145.513 182.304C145.439 182.232 145.298 182.095 145.222 182.022C145.115 181.919 144.734 181.551 144.621 181.442C144.603 181.425 144.485 181.311 144.468 181.295C144.421 181.249 144.362 181.192 144.314 181.146C144.295 181.128 144.018 180.861 144.004 180.847C143.73 180.583 143.675 180.53 143.42 180.284C147.049 176.781 151.17 172.805 154.612 169.484L159.923 164.358C160.589 163.716 161.123 163.201 161.49 162.847C161.673 162.67 161.814 162.533 161.91 162.44L162.047 162.308L162.057 162.299L176.096 148.75L263.265 64.6258C270.404 57.7357 270.404 46.515 263.265 39.6248C256.19 32.7976 244.766 32.7975 237.692 39.6248L150.523 123.749L136.484 137.298L117.68 155.443L108.322 146.411L126.957 128.426L140.997 114.877L228.166 30.7528ZM169.158 146.411L159.8 155.443L143.42 139.636L152.78 130.603L169.158 146.411Z" fill="url(#paint0_linear_30_93)" fill-opacity="0.2"/>
<path d="M71.2044 94.9442C83.5143 83.0643 103.519 83.0644 115.829 94.9442L134.06 112.538L124.7 121.57L106.304 103.816C99.2294 96.989 87.8053 96.9889 80.7308 103.816C73.5913 110.706 73.5915 121.927 80.7308 128.817L101.385 148.75L115.425 162.3L115.426 162.302C115.427 162.303 115.431 162.306 115.434 162.308L115.571 162.44C115.667 162.533 115.808 162.67 115.992 162.847C116.358 163.201 116.892 163.716 117.558 164.358C118.89 165.643 120.751 167.44 122.869 169.484L136.484 182.623L137.632 183.731L137.654 183.753C137.657 183.756 137.661 183.759 137.664 183.763L138.91 184.965C138.915 184.969 138.925 184.979 138.945 184.998C138.951 185.004 138.958 185.011 138.964 185.017L139.003 185.055C139.01 185.061 139.016 185.068 139.023 185.074C139.118 185.166 139.085 185.134 139.13 185.178L139.3 185.341C139.346 185.385 139.284 185.326 139.335 185.375C139.403 185.44 139.423 185.46 139.491 185.525C139.75 185.775 139.542 185.575 139.8 185.824L139.839 185.861C139.847 185.869 139.87 185.891 139.877 185.898C139.884 185.904 139.89 185.911 139.897 185.917C139.903 185.923 139.909 185.929 139.915 185.935L139.954 185.972C140.105 186.118 139.963 185.981 140.089 186.103L141.104 187.082C141.105 187.083 141.106 187.084 141.107 187.085C141.112 187.09 141.119 187.096 141.124 187.101C141.13 187.107 141.136 187.113 141.142 187.119C141.157 187.134 141.17 187.145 141.179 187.154L143.908 189.789C146.966 192.739 150.833 194.407 154.785 194.811C159.996 195.344 165.441 193.688 169.482 189.789C173.098 186.299 174.892 181.68 174.833 177.067L186.034 166.256C190.433 177.087 188.106 189.88 179.007 198.661C168.507 208.794 152.38 210.299 140.213 203.102C138.139 201.875 136.18 200.395 134.383 198.661L124.164 188.8L108.692 173.867L92.9134 158.639L71.2044 137.689C58.9596 125.872 58.9597 106.762 71.2044 94.9442ZM103.194 177.594C103.396 181.857 105.184 186.053 108.528 189.279C111.891 192.525 116.229 194.216 120.591 194.385L129.869 203.338C130.567 204.011 131.286 204.653 132.023 205.264C120.866 209.134 107.908 206.747 99.0013 198.151C90.1088 189.569 87.6845 177.155 91.6849 166.486L103.194 177.594ZM228.166 30.7528C240.476 18.8731 260.48 18.8731 272.79 30.7528C285.035 42.5702 285.035 61.6805 272.79 73.4979L184.722 158.491L169.246 173.426L154.026 188.114C151.961 187.652 150.014 186.648 148.422 185.111L148.409 185.098C148.405 185.094 148.382 185.073 148.37 185.061C148.349 185.04 148.334 185.027 148.325 185.017L148.099 184.8C147.977 184.682 147.806 184.517 147.67 184.386C147.573 184.292 147.501 184.222 147.44 184.163L146.347 183.108C146.344 183.106 146.342 183.103 146.339 183.1L146.274 183.037C146.258 183.021 146.224 182.989 146.207 182.973C146.1 182.869 146.248 183.014 146.14 182.909C146.134 182.903 146.127 182.896 146.119 182.889L146.016 182.789C146.014 182.787 146.01 182.783 146.005 182.778C145.987 182.761 145.989 182.763 145.971 182.745L145.936 182.712C145.904 182.681 145.934 182.71 145.902 182.679C145.87 182.648 145.898 182.676 145.867 182.645L145.832 182.611L145.797 182.578C145.537 182.327 145.776 182.557 145.513 182.304C145.439 182.232 145.298 182.095 145.222 182.022C145.115 181.919 144.734 181.551 144.621 181.442C144.603 181.425 144.485 181.311 144.468 181.295C144.421 181.249 144.362 181.192 144.314 181.146C144.295 181.128 144.018 180.861 144.004 180.847C143.73 180.583 143.675 180.53 143.42 180.284C147.049 176.781 151.17 172.805 154.612 169.484L159.923 164.358C160.589 163.716 161.123 163.201 161.49 162.847C161.673 162.67 161.814 162.533 161.91 162.44L162.047 162.308L162.057 162.299L176.096 148.75L263.265 64.6258C270.404 57.7357 270.404 46.515 263.265 39.6248C256.19 32.7976 244.766 32.7975 237.692 39.6248L150.523 123.749L136.484 137.298L117.68 155.443L108.322 146.411L126.957 128.426L140.997 114.877L228.166 30.7528ZM169.158 146.411L159.8 155.443L143.42 139.636L152.78 130.603L169.158 146.411Z" fill="url(#paint1_linear_30_93)"/>
</g>
<g filter="url(#filter1_d_30_93)">
<path fill-rule="evenodd" clip-rule="evenodd" d="M44.9687 130.804C42.6495 122.331 41.8877 113.544 42.6785 104.864L18.1274 106.513C17.6662 115.52 18.4574 124.574 20.4968 133.415L45.237 131.753C45.146 131.438 45.0555 131.122 44.9687 130.804ZM144.249 18.3347C127.557 13.1836 109.786 12.6125 92.7973 16.68C75.8084 20.7477 60.224 29.3052 47.6745 41.4575C35.125 53.6099 26.07 68.9115 21.4582 85.7609C20.4954 89.279 19.7359 92.8381 19.1751 96.4203L44.3236 94.7314C44.5234 93.8833 44.738 93.0375 44.9686 92.1952C48.4274 79.5582 55.2189 68.0823 64.631 58.968C74.0431 49.854 85.7311 43.435 98.4726 40.3842C111.214 37.3336 124.543 37.7622 137.062 41.6255C149.582 45.4889 160.833 52.6453 169.64 62.3456L187.687 45.9608C175.945 33.0269 160.942 23.4859 144.249 18.3347Z" fill="url(#paint2_linear_30_93)"/>
<path d="M64.6309 164.031C57.9639 157.575 52.6133 149.934 48.8292 141.535L23.3144 143.248C28.2997 157.723 36.634 170.852 47.6744 181.543C60.2241 193.695 74.3174 202.353 91.3065 206.42C98.4418 208.129 103.111 208.312 104.522 208.217C104.522 208.217 98.7957 207.564 91.2108 197.357C85.0626 189.084 83.708 182.631 83.6605 178.131C83.6605 178.131 74.0432 173.145 64.6309 164.031Z" fill="url(#paint3_linear_30_93)"/>
</g>
<path d="M350.871 157.059C346.647 157.059 342.967 156.259 339.831 154.659C336.759 153.059 334.359 150.755 332.631 147.747C330.967 144.675 330.135 141.059 330.135 136.899V105.219C330.135 100.995 330.967 97.3788 332.631 94.3708C334.359 91.3628 336.759 89.0588 339.831 87.4588C342.967 85.8588 346.647 85.0588 350.871 85.0588C355.095 85.0588 358.743 85.8908 361.815 87.5548C364.887 89.1548 367.255 91.4588 368.919 94.4668C370.583 97.4748 371.415 101.059 371.415 105.219H362.775C362.775 101.251 361.719 98.2108 359.607 96.0988C357.559 93.9228 354.647 92.8348 350.871 92.8348C347.095 92.8348 344.119 93.8908 341.943 96.0028C339.831 98.1147 338.775 101.155 338.775 105.123V136.899C338.775 140.867 339.831 143.939 341.943 146.115C344.119 148.227 347.095 149.283 350.871 149.283C354.647 149.283 357.559 148.227 359.607 146.115C361.719 143.939 362.775 140.867 362.775 136.899H371.415C371.415 140.995 370.583 144.579 368.919 147.651C367.255 150.659 364.887 152.995 361.815 154.659C358.743 156.259 355.095 157.059 350.871 157.059ZM388.081 156.099V86.0188H396.721V103.299V113.379H398.545L396.721 115.395C396.721 111.235 397.969 108.035 400.465 105.795C402.961 103.491 406.417 102.339 410.833 102.339C416.145 102.339 420.369 103.971 423.505 107.235C426.641 110.499 428.209 114.947 428.209 120.579V156.099H419.569V121.539C419.569 117.763 418.545 114.851 416.497 112.803C414.513 110.691 411.793 109.635 408.337 109.635C404.753 109.635 401.905 110.755 399.793 112.995C397.745 115.235 396.721 118.403 396.721 122.499V156.099H388.081ZM461.004 157.059C455.436 157.059 451.052 155.651 447.852 152.835C444.652 149.955 443.052 146.083 443.052 141.219C443.052 136.291 444.652 132.419 447.852 129.603C451.052 126.787 455.372 125.379 460.812 125.379H477.132V120.099C477.132 116.835 476.14 114.339 474.156 112.611C472.236 110.819 469.484 109.923 465.9 109.923C462.764 109.923 460.14 110.595 458.028 111.939C455.916 113.219 454.7 114.979 454.38 117.219H445.74C446.316 112.675 448.46 109.059 452.172 106.371C455.884 103.683 460.524 102.339 466.092 102.339C472.172 102.339 476.972 103.907 480.492 107.043C484.012 110.179 485.772 114.435 485.772 119.811V156.099H477.324V146.019H475.884L477.324 144.579C477.324 148.419 475.82 151.459 472.812 153.699C469.868 155.939 465.932 157.059 461.004 157.059ZM463.116 150.243C467.212 150.243 470.572 149.219 473.196 147.171C475.82 145.123 477.132 142.499 477.132 139.299V131.811H461.004C458.124 131.811 455.852 132.611 454.188 134.211C452.524 135.811 451.692 137.987 451.692 140.739C451.692 143.683 452.684 146.019 454.668 147.747C456.716 149.411 459.532 150.243 463.116 150.243ZM502.534 156.099V148.227H521.254V111.171H504.934V103.299H529.894V148.227H547.654V156.099H502.534ZM524.614 93.7948C522.502 93.7948 520.838 93.2508 519.622 92.1628C518.406 91.0748 517.798 89.6028 517.798 87.7468C517.798 85.8268 518.406 84.3228 519.622 83.2347C520.838 82.0828 522.502 81.5068 524.614 81.5068C526.726 81.5068 528.39 82.0828 529.606 83.2347C530.822 84.3228 531.43 85.8268 531.43 87.7468C531.43 89.6028 530.822 91.0748 529.606 92.1628C528.39 93.2508 526.726 93.7948 524.614 93.7948ZM560.769 156.099V103.299H569.409V113.379H571.233L569.409 115.395C569.409 111.235 570.657 108.035 573.153 105.795C575.649 103.491 579.105 102.339 583.521 102.339C588.833 102.339 593.057 103.971 596.193 107.235C599.329 110.499 600.897 114.947 600.897 120.579V156.099H592.257V121.539C592.257 117.763 591.233 114.883 589.185 112.899C587.201 110.851 584.481 109.827 581.025 109.827C577.441 109.827 574.593 110.915 572.481 113.091C570.433 115.267 569.409 118.403 569.409 122.499V156.099H560.769ZM632.443 156.099L614.779 103.299H623.611L635.323 138.819C636.027 140.931 636.667 142.979 637.243 144.963C637.819 146.883 638.235 148.387 638.491 149.475C638.811 148.387 639.259 146.883 639.835 144.963C640.411 142.979 641.019 140.931 641.659 138.819L653.083 103.299H661.819L644.155 156.099H632.443ZM695.862 157.059C691.702 157.059 688.054 156.227 684.918 154.563C681.846 152.899 679.446 150.563 677.718 147.555C676.054 144.483 675.222 140.931 675.222 136.899V122.499C675.222 118.403 676.054 114.851 677.718 111.843C679.446 108.835 681.846 106.499 684.918 104.835C688.054 103.171 691.702 102.339 695.862 102.339C700.022 102.339 703.638 103.171 706.71 104.835C709.846 106.499 712.246 108.835 713.91 111.843C715.638 114.851 716.502 118.403 716.502 122.499V131.811H683.67V136.899C683.67 141.059 684.726 144.259 686.838 146.499C688.95 148.675 691.958 149.763 695.862 149.763C699.19 149.763 701.878 149.187 703.926 148.035C705.974 146.819 707.222 145.027 707.67 142.659H716.31C715.734 147.075 713.558 150.595 709.782 153.219C706.07 155.779 701.43 157.059 695.862 157.059ZM708.054 126.051V122.499C708.054 118.339 706.998 115.139 704.886 112.899C702.838 110.659 699.83 109.539 695.862 109.539C691.958 109.539 688.95 110.659 686.838 112.899C684.726 115.139 683.67 118.339 683.67 122.499V125.283H708.726L708.054 126.051ZM759.184 156.099C754.64 156.099 751.088 154.883 748.528 152.451C746.032 150.019 744.784 146.595 744.784 142.179V111.171H729.904V103.299H744.784V88.4188H753.424V103.299H774.544V111.171H753.424V142.179C753.424 146.211 755.344 148.227 759.184 148.227H773.584V156.099H759.184Z" fill="url(#paint4_linear_30_93)"/>
<defs>
<filter id="filter0_d_30_93" x="44.0208" y="7.84302" width="255.953" height="221.728" filterUnits="userSpaceOnUse" color-interpolation-filters="sRGB">
<feFlood flood-opacity="0" result="BackgroundImageFix"/>
<feColorMatrix in="SourceAlpha" type="matrix" values="0 0 0 0 0 0 0 0 0 0 0 0 0 0 0 0 0 0 127 0" result="hardAlpha"/>
<feOffset dy="4"/>
<feGaussianBlur stdDeviation="9"/>
<feComposite in2="hardAlpha" operator="out"/>
<feColorMatrix type="matrix" values="0 0 0 0 0.0666667 0 0 0 0 0.0666667 0 0 0 0 0.105882 0 0 0 0.25 0"/>
<feBlend mode="plus-darker" in2="BackgroundImageFix" result="effect1_dropShadow_30_93"/>
<feBlend mode="normal" in="SourceGraphic" in2="effect1_dropShadow_30_93" result="shape"/>
</filter>
<filter id="filter1_d_30_93" x="0" y="0" width="205.687" height="230.237" filterUnits="userSpaceOnUse" color-interpolation-filters="sRGB">
<feFlood flood-opacity="0" result="BackgroundImageFix"/>
<feColorMatrix in="SourceAlpha" type="matrix" values="0 0 0 0 0 0 0 0 0 0 0 0 0 0 0 0 0 0 127 0" result="hardAlpha"/>
<feOffset dy="4"/>
<feGaussianBlur stdDeviation="9"/>
<feComposite in2="hardAlpha" operator="out"/>
<feColorMatrix type="matrix" values="0 0 0 0 0.0666667 0 0 0 0 0.0666667 0 0 0 0 0.105882 0 0 0 0.25 0"/>
<feBlend mode="plus-darker" in2="BackgroundImageFix" result="effect1_dropShadow_30_93"/>
<feBlend mode="normal" in="SourceGraphic" in2="effect1_dropShadow_30_93" result="shape"/>
</filter>
<linearGradient id="paint0_linear_30_93" x1="281.974" y1="114.707" x2="62.0208" y2="114.707" gradientUnits="userSpaceOnUse">
<stop stop-color="#7287FD"/>
<stop offset="0.5" stop-color="#B4BEFE"/>
<stop offset="1" stop-color="#7287FD"/>
</linearGradient>
<linearGradient id="paint1_linear_30_93" x1="171.997" y1="21.843" x2="171.997" y2="207.571" gradientUnits="userSpaceOnUse">
<stop stop-color="#CBA6F7"/>
<stop offset="1" stop-color="#7287FD"/>
</linearGradient>
<linearGradient id="paint2_linear_30_93" x1="212.973" y1="104.954" x2="16.6293" y2="118.14" gradientUnits="userSpaceOnUse">
<stop stop-color="#89B4FA"/>
<stop offset="1" stop-color="#7287FD"/>
</linearGradient>
<linearGradient id="paint3_linear_30_93" x1="212.973" y1="104.954" x2="16.6293" y2="118.14" gradientUnits="userSpaceOnUse">
<stop stop-color="#89B4FA"/>
<stop offset="1" stop-color="#7287FD"/>
</linearGradient>
<linearGradient id="paint4_linear_30_93" x1="321.687" y1="121.599" x2="782.687" y2="121.599" gradientUnits="userSpaceOnUse">
<stop stop-color="#7287FD"/>
<stop offset="0.5" stop-color="#89B4FA"/>
<stop offset="1" stop-color="#CBA6F7"/>
</linearGradient>
</defs>
</svg>
